<svg width="40" height="40" viewBox="0 0 40 40" fill="none" xmlns="http://www.w3.org/2000/svg">
<rect width="40" height="40" rx="12" fill="#FFE4E8"/>
<path d="M29 24V15.2C29 14.0799 29 13.5198 28.782 13.092C28.5903 12.7157 28.2843 12.4097 27.908 12.218C27.4802 12 26.9201 12 25.8 12H14.2C13.0799 12 12.5198 12 12.092 12.218C11.7157 12.4097 11.4097 12.7157 11.218 13.092C11 13.5198 11 14.0799 11 15.2V24M12.6667 28H27.3333C27.9533 28 28.2633 28 28.5176 27.9319C29.2078 27.7469 29.7469 27.2078 29.9319 26.5176C30 26.2633 30 25.9533 30 25.3333C30 25.0233 30 24.8683 29.9659 24.7412C29.8735 24.3961 29.6039 24.1265 29.2588 24.0341C29.1317 24 28.9767 24 28.6667 24H11.3333C11.0233 24 10.8683 24 10.7412 24.0341C10.3961 24.1265 10.1265 24.3961 10.0341 24.7412C10 24.8683 10 25.0233 10 25.3333C10 25.9533 10 26.2633 10.0681 26.5176C10.2531 27.2078 10.7922 27.7469 11.4824 27.9319C11.7367 28 12.0467 28 12.6667 28Z" stroke="#F63D68" stroke-width="2" stroke-linecap="round" stroke-linejoin="round"/>
</svg>
